<?xml version="1.0" encoding="UTF-8"?>
<!DOCTYPE svg PUBLIC "-//W3C//DTD SVG 1.1//EN" "http://www.w3.org/Graphics/SVG/1.1/DTD/svg11.dtd">
<!-- Creator: CorelDRAW X7 -->
<svg xmlns="http://www.w3.org/2000/svg" xml:space="preserve" width="1500px" height="2000px" version="1.1"
    style="shape-rendering:geometricPrecision; text-rendering:geometricPrecision; image-rendering:optimizeQuality; fill-rule:evenodd; clip-rule:evenodd"
    viewBox="0 0 17575344 23433788">
 <defs>
  <style type="text/css">
   <![CDATA[
    .fil0 {fill:none}
    .fil2 {fill:#6600CC}
    .fil1 {fill:#9900FF}
   ]]>
  </style>
 </defs>
 <g id="Layer_x0020_1">
  <metadata id="CorelCorpID_0Corel-Layer"/>
  <rect class="fil0" x="-6" y="3" width="17575344" height="23433788"/>
  <g id="_1832661544240">
   <g>
    <path class="fil1" d="M10990638 12776293c71131,-58456 151812,-106753 242014,-144865 90187,-38140 192457,-57210 306807,-57210l0 457526c-152449,0 -282036,53363 -388747,160116 -106712,111831 -160074,241460 -160074,388871l0 956957 -457361 0 0 -956957 0 -953123 457361 0 0 148685z"/>
    <path class="fil1" d="M10266506 11865101l0 2672587 -457360 0 0 -953137c0,-155051 -53349,-284665 -160061,-388886 -106711,-106739 -235025,-160115 -384955,-160115 -152435,0 -282008,53376 -388747,160115 -106712,106753 -160060,236382 -160060,388886 0,149972 53348,278313 160060,385080 50830,53363 109908,93398 177248,120080 67312,26709 137821,40035 211499,40035 73706,0 141018,-12704 202006,-38112l163893 407928c-116896,58469 -251549,87697 -403997,87697 -139745,0 -268682,-26059 -386852,-78162 -118142,-52103 -220411,-123899 -306807,-215402 -86382,-91502 -153722,-198269 -201992,-320258 -48256,-122004 -72405,-251632 -72405,-388886 0,-139800 24149,-270688 72405,-392691 48270,-122004 115610,-228757 201992,-320259 86396,-91489 188665,-163299 306807,-215416 118170,-52089 247107,-78148 386852,-78148 121961,0 231219,19070 327773,57182 96554,38140 181663,86438 255341,144893l0 -915011 457360 0z"/>
    <path class="fil1" d="M7259434 12578037c124508,0 237557,23513 339204,70537 101619,47024 188651,111832 261070,194436 72405,82604 128300,178549 167699,287848 39372,109285 59078,226210 59078,350760l0 1056070 -457360 0 0 -1056070c0,-127083 -44464,-232562 -133407,-316453 -86382,-86410 -190547,-129615 -312509,-129615 -124494,0 -229960,43205 -316328,129615 -86410,86437 -129601,191903 -129601,316453l0 1056070 -457333 0 0 -1906260 457333 0 0 144865c68613,-58456 146110,-106103 232493,-142969 86396,-36867 182949,-55287 289661,-55287z"/>
    <path class="fil1" d="M6032218 12627608l0 1910080 -457360 0 0 -953137c0,-152504 -53349,-282133 -160074,-388886 -106712,-106739 -236285,-160115 -388748,-160115 -73678,0 -144187,13977 -211513,41932 -67339,27954 -126418,67367 -177234,118183 -106711,106753 -160060,236382 -160060,388886 0,149972 53349,278313 160060,385080 50816,53363 109895,93398 177234,120080 67326,26709 137835,40035 211513,40035 76239,0 144838,-12704 205812,-38112l163893 407928c-116883,58469 -252822,87697 -407803,87697 -139759,0 -268695,-26059 -386851,-78162 -118143,-52103 -220412,-123899 -306808,-215402 -86382,-91502 -153722,-198269 -202005,-320258 -48256,-122004 -72405,-251632 -72405,-388886 0,-139800 24149,-270688 72405,-392691 48283,-122004 115623,-228757 202005,-320259 86396,-91489 188665,-163299 306808,-215416 118156,-52089 247092,-78148 386851,-78148 124494,0 235025,19070 331579,57182 96540,38140 181663,86438 255341,144893l0 -152504 457360 0z"/>
    <g>
     <path class="fil1" d="M12549432 14988323l0 4818011 -824477 0 0 -1718246c0,-279518 -96208,-513214 -288582,-701063 -192387,-192443 -423690,-288678 -693949,-288678 -274812,0 -508426,96235 -700799,288678 -192374,192429 -288568,426126 -288568,701063 0,270314 96194,501727 288568,694157 91599,96235 198103,168405 319497,216508 121367,48104 248477,72170 381302,72170 132839,0 254234,-22903 364156,-68738l295432 735425c-210683,105383 -453472,158081 -728284,158081 -251936,0 -484388,-46969 -697368,-140893 -212993,-93938 -397355,-223373 -553111,-388332 -155728,-164960 -277109,-357403 -364142,-577344 -87032,-219940 -130542,-453623 -130542,-701034 0,-252020 43510,-488000 130542,-707941 87033,-219941 208414,-412384 364142,-577343 155756,-164959 340118,-294394 553111,-388332 212980,-93924 445432,-140893 697368,-140893 219858,0 416826,34375 590878,103099 174051,68738 327510,155784 460349,261167l0 -1649522 824477 0z"/>
     <path class="fil1" d="M6908591 16280457c251923,0 484374,46969 697368,140893 212993,93924 397368,223373 553097,388332 155729,164959 277123,357402 364156,577343 87018,219927 130528,455921 130528,707913 0,247439 -43510,481121 -130528,701062 -87033,219941 -208427,412371 -364156,577330 -155729,164959 -340104,294407 -553097,388346 -212994,93924 -445445,140893 -697368,140893 -270245,0 -515304,-52698 -735161,-158081l295431 -735425c109922,45821 233614,68724 371020,68724 279407,0 513006,-96221 700800,-288665 192401,-192429 288581,-423842 288581,-694184 0,-274923 -96180,-508606 -288581,-701049 -192360,-192429 -425974,-288664 -700800,-288664 -265664,0 -499278,96235 -700813,288664 -192374,192443 -288582,426126 -288582,701049l0 1443351 0 274922 -824463 0 0 -4818010 824463 0 0 1649522c132839,-105383 286298,-192429 460350,-261167 174051,-68724 373317,-103099 597755,-103099z"/>
    </g>
   </g>
   <g>
    <path class="fil2" d="M3114586 12792373c-211540,155535 -210060,405548 -149030,646344 41073,161873 39053,452406 594282,506530 -498088,-38597 -613934,-113230 -713310,-508786 -157307,-626305 19637,-719094 365415,-939215 867253,-552143 1801002,-946232 3830539,-799637 501686,-118446 1325914,-793160 2637782,-866464 1194639,-66662 2277820,218349 3394810,463173 402945,88319 941332,284056 1252748,299791 281538,14226 324673,-119485 437612,10697 86147,99308 -103155,637902 -321269,1535158 102214,-1110803 195682,-1241055 -1103344,-1538991 -1333041,-305728 -1551529,157431 -2732136,200912 580872,-118059 1234205,-526167 516826,-683155 -2167026,-474202 -3469788,687210 -4076539,801685 -693852,-70149 -2356410,-288222 -3934386,871958z"/>
    <g>
     <path class="fil2" d="M11376839 14469601l289162 289260c36687,36728 36687,96830 0,133517l-1194569 1194971c-36673,36715 -96748,36715 -133476,0l-289149 -289273c-36715,-36729 -36715,-96859 -55,-133545l1194569 -1194971c36673,-36687 96775,-36687 133518,41z"/>
     <path class="fil2" d="M11347237 14124183l0 0c58110,-58137 153196,-58137 211333,28l452656 452807c58137,58165 58123,153279 27,211389l0 0c-58137,58164 -153224,58192 -211361,27l-452655 -452807c-58151,-58165 -58151,-153279 0,-211444z"/>
     <path class="fil2" d="M13261787 12873192c-393411,-393549 -1031285,-393563 -1424710,42 -393438,393577 -393438,1031645 0,1425194 393425,393591 1031327,393591 1424710,14 393494,-393563 393494,-1031631 0,-1425250zm-324742 324895c-214087,-214128 -561138,-214115 -775197,28 -214074,214115 -214074,561318 0,775460 214087,214156 561137,214156 775183,14 214087,-214156 214087,-561359 14,-775502z"/>
    </g>
   </g>
  </g>
  <g id="_1832661551120">
   <path class="fil2" d="M3114572 5503906c-211540,155659 -210073,405880 -149030,646856 41074,162011 39039,452765 594268,506931 -498088,-38625 -613919,-113313 -713296,-509187 -157306,-626803 19637,-719662 365415,-939963 867253,-552585 1801002,-946979 3830539,-800273 501686,-118544 1325915,-793797 2637783,-867156 1194639,-66718 2277819,218529 3394809,463546 402959,88389 941346,284291 1252748,300026 281538,14240 324687,-119581 437626,10711 86147,99377 -103155,638414 -321269,1536376 102214,-1111689 195668,-1242051 -1103358,-1540209 -1333041,-305977 -1551515,157542 -2732122,201065 580872,-118156 1234205,-526582 516826,-683695 -2167040,-474590 -3469802,687750 -4076552,802321 -693853,-70204 -2356425,-288443 -3934387,872651z"/>
   <g>
    <path class="fil1" d="M8844591 5667813c46762,-38472 99792,-70232 159078,-95308 59286,-25076 126515,-37614 201660,-37614l0 300954c-100194,0 -185372,35109 -255521,105327 -70135,73567 -105217,158843 -105217,255811l0 629516 -300607 0 0 -629516 0 -626997 300607 0 0 97827z"/>
    <path class="fil1" d="M8368604 5068383l0 1758116 -300608 0 0 -626997c0,-102006 -35081,-187267 -105216,-255811 -70150,-70232 -154497,-105342 -253030,-105342 -100207,0 -185385,35110 -255521,105342 -70149,70218 -105216,155493 -105216,255811 0,98643 35067,183074 105216,253320 33407,35096 72239,61431 116482,78992 44257,17548 90603,26336 139039,26336 48436,0 92693,-8359 132784,-25090l107721 268363c-76833,38458 -165346,57680 -265553,57680 -91849,0 -176612,-17132 -254275,-51411 -77664,-34279 -144879,-81511 -201660,-141710 -56781,-60185 -101052,-130403 -132784,-210669 -31719,-80251 -47592,-165526 -47592,-255811 0,-91959 15873,-178065 47592,-258330 31732,-80251 76003,-150470 132784,-210669 56781,-60199 123996,-107431 201660,-141696 77663,-34279 162426,-51425 254275,-51425 80168,0 151978,12538 215443,37628 63479,25076 119415,56850 167851,95294l0 -601921 300608 0z"/>
    <path class="fil1" d="M6392042 5537382c81843,0 156158,15472 222958,46402 66814,30943 124010,73567 171602,127912 47605,54345 84334,117451 110226,189343 25879,71907 38832,148823 38832,230736l0 694724 -300622 0 0 -694724c0,-83587 -29213,-152989 -87683,-208151 -56780,-56863 -125255,-85275 -205410,-85275 -81843,0 -151161,28412 -207928,85275 -56781,56837 -85179,126238 -85179,208151l0 694724 -300607 0 0 -1253994 300607 0 0 95308c45087,-38472 96028,-69817 152823,-94062 56767,-24246 120246,-36369 190381,-36369z"/>
    <path class="fil1" d="M5585403 5569986l0 1256513 -300635 0 0 -626997c0,-100318 -35054,-185593 -105217,-255811 -70135,-70232 -155314,-105342 -255521,-105342 -48436,0 -94782,9189 -139039,27595 -44256,18392 -83074,44298 -116481,77747 -70150,70218 -105217,155493 -105217,255811 0,98643 35067,183074 105217,253320 33407,35096 72225,61431 116481,78992 44257,17548 90603,26336 139039,26336 50097,0 95198,-8359 135289,-25090l107708 268363c-76820,38458 -166177,57680 -268045,57680 -91849,0 -176612,-17132 -254275,-51411 -77664,-34279 -144893,-81511 -201660,-141710 -56781,-60185 -101051,-130403 -132784,-210669 -31718,-80251 -47592,-165526 -47592,-255811 0,-91959 15874,-178065 47592,-258330 31733,-80251 76003,-150470 132784,-210669 56767,-60199 123996,-107431 201660,-141696 77663,-34279 162426,-51425 254275,-51425 81829,0 154469,12538 217948,37628 63465,25076 119415,56850 167838,95294l0 -100318 300635 0z"/>
    <path class="fil1" d="M13411482 5068383l0 1758116 -300607 0 0 -626997c0,-102006 -35082,-187267 -105217,-255811 -70163,-70232 -154497,-105342 -253030,-105342 -100207,0 -185385,35110 -255520,105342 -70163,70218 -105217,155493 -105217,255811 0,98643 35054,183074 105217,253320 33393,35096 72225,61431 116481,78992 44257,17548 90603,26336 139039,26336 48436,0 92693,-8359 132770,-25090l107736 268363c-76847,38458 -165347,57680 -265554,57680 -91862,0 -176612,-17132 -254289,-51411 -77650,-34279 -144879,-81511 -201660,-141710 -56767,-60185 -101037,-130403 -132770,-210669 -31732,-80251 -47605,-165526 -47605,-255811 0,-91959 15873,-178065 47605,-258330 31733,-80251 76003,-150470 132770,-210669 56781,-60199 124010,-107431 201660,-141696 77677,-34279 162427,-51425 254289,-51425 80168,0 151978,12538 215429,37628 63479,25076 119416,56850 167866,95294l0 -601921 300607 0z"/>
    <path class="fil1" d="M11354766 5539901c91848,0 176611,17132 254261,51411 77664,34279 144893,81511 201660,141710 56794,60185 101051,130403 132783,210669 31719,80251 47592,166371 47592,258330 0,90271 -15873,175546 -47592,255811 -31732,80251 -75989,150470 -132783,210669 -56767,60199 -123996,107431 -201660,141696 -77650,34279 -162413,51425 -254261,51425 -98533,0 -187890,-19222 -268059,-57694l107722 -268349c40091,16717 85178,25076 135274,25076 101882,0 187060,-35110 255535,-105342 70135,-70218 105217,-154649 105217,-253292 0,-100332 -35082,-185593 -105217,-255839 -70149,-70219 -155327,-105328 -255535,-105328 -96858,0 -182036,35109 -255520,105328 -70135,70246 -105217,155507 -105217,255839l0 526679 0 100318 -300607 0 0 -1758116 300607 0 0 601921c48436,-38458 104373,-70232 167852,-95308 63451,-25076 136105,-37614 217948,-37614z"/>
   </g>
   <g>
    <path class="fil2" d="M9100112 6774603l189260 189482c24024,24066 24024,63437 0,87461l-781881 782781c-24011,24052 -63341,24052 -87365,0l-189274 -189495c-24024,-24052 -24024,-63451 -28,-87475l781896 -782781c23996,-24025 63340,-24025 87392,27z"/>
    <path class="fil2" d="M9080724 6548338l0 0c38043,-38085 100276,-38085 138333,14l296290 296622c38043,38098 38029,100401 14,138471l0 0c-38057,38099 -100291,38113 -138347,14l-296290 -296622c-38043,-38098 -38043,-100401 0,-138499z"/>
    <path class="fil2" d="M10333887 5728856c-257499,-257790 -675018,-257804 -932531,42 -257527,257804 -257527,675779 0,933569 257513,257832 675046,257832 932531,28 257555,-257818 257555,-675793 0,-933639zm-212551 212828c-140132,-140270 -367297,-140257 -507415,28 -140119,140257 -140119,367684 0,507955 140132,140298 367297,140298 507388,28 140132,-140299 140132,-367726 27,-508011z"/>
   </g>
  </g>
 </g>
</svg>
